<svg xmlns="http://www.w3.org/2000/svg" xmlns:xlink="http://www.w3.org/1999/xlink" width="100" zoomAndPan="magnify" viewBox="0 0 75 37.5" height="50" preserveAspectRatio="xMidYMid meet" version="1.0"><defs><g/><clipPath id="e326a58933"><path d="M 13.71875 13.308594 L 24.820312 13.308594 L 24.820312 23.667969 L 13.71875 23.667969 Z M 13.71875 13.308594 " clip-rule="nonzero"/></clipPath></defs><g clip-path="url(#e326a58933)"><path fill="#5267df" d="M 24.09375 18.488281 C 24.09375 18.828125 24.0625 19.164062 23.996094 19.5 C 23.929688 19.832031 23.832031 20.15625 23.699219 20.46875 C 23.570312 20.785156 23.410156 21.082031 23.21875 21.367188 C 23.03125 21.648438 22.816406 21.910156 22.574219 22.148438 C 22.335938 22.390625 22.074219 22.605469 21.789062 22.792969 C 21.507812 22.984375 21.207031 23.140625 20.890625 23.273438 C 20.578125 23.402344 20.253906 23.5 19.917969 23.566406 C 19.585938 23.632812 19.246094 23.667969 18.90625 23.667969 C 18.566406 23.667969 18.230469 23.632812 17.894531 23.566406 C 17.558594 23.5 17.234375 23.402344 16.921875 23.273438 C 16.605469 23.140625 16.308594 22.984375 16.023438 22.792969 C 15.742188 22.605469 15.480469 22.390625 15.238281 22.148438 C 14.996094 21.910156 14.78125 21.648438 14.59375 21.367188 C 14.402344 21.082031 14.242188 20.785156 14.113281 20.46875 C 13.984375 20.15625 13.882812 19.832031 13.816406 19.5 C 13.75 19.164062 13.71875 18.828125 13.71875 18.488281 C 13.71875 18.148438 13.75 17.8125 13.816406 17.476562 C 13.882812 17.144531 13.984375 16.820312 14.113281 16.507812 C 14.242188 16.191406 14.402344 15.894531 14.59375 15.613281 C 14.78125 15.328125 14.996094 15.066406 15.238281 14.828125 C 15.480469 14.585938 15.742188 14.371094 16.023438 14.183594 C 16.308594 13.996094 16.605469 13.835938 16.921875 13.703125 C 17.234375 13.574219 17.558594 13.476562 17.894531 13.410156 C 18.230469 13.34375 18.566406 13.3125 18.90625 13.3125 C 19.246094 13.3125 19.585938 13.34375 19.917969 13.410156 C 20.253906 13.476562 20.578125 13.574219 20.890625 13.703125 C 21.207031 13.835938 21.507812 13.996094 21.789062 14.183594 C 22.074219 14.371094 22.335938 14.585938 22.574219 14.828125 C 22.816406 15.066406 23.03125 15.328125 23.21875 15.613281 C 23.410156 15.894531 23.570312 16.191406 23.699219 16.507812 C 23.832031 16.820312 23.929688 17.144531 23.996094 17.476562 C 24.0625 17.8125 24.09375 18.148438 24.09375 18.488281 Z M 24.09375 18.488281 " fill-opacity="1" fill-rule="nonzero"/></g><path fill="#ffffff" d="M 17.453125 17.039062 L 17.453125 21.179688 L 18.921875 19.757812 L 20.390625 21.179688 L 20.390625 17.039062 C 20.390625 16.808594 20.3125 16.613281 20.148438 16.453125 C 19.988281 16.292969 19.789062 16.210938 19.5625 16.210938 L 18.285156 16.210938 C 18.054688 16.210938 17.859375 16.292969 17.695312 16.453125 C 17.535156 16.613281 17.453125 16.808594 17.453125 17.039062 Z M 17.453125 17.039062 " fill-opacity="1" fill-rule="evenodd"/><g fill="#ffffff" fill-opacity="1"><g transform="translate(26.319995, 20.603266)"><g><path d="M 0.609375 0 C 0.566406 0 0.53125 -0.015625 0.5 -0.046875 C 0.476562 -0.078125 0.46875 -0.113281 0.46875 -0.15625 L 0.46875 -4.21875 C 0.46875 -4.257812 0.476562 -4.296875 0.5 -4.328125 C 0.53125 -4.359375 0.566406 -4.375 0.609375 -4.375 L 2.46875 -4.375 C 2.820312 -4.375 3.109375 -4.320312 3.328125 -4.21875 C 3.546875 -4.125 3.707031 -3.984375 3.8125 -3.796875 C 3.914062 -3.617188 3.96875 -3.40625 3.96875 -3.15625 C 3.96875 -3 3.941406 -2.863281 3.890625 -2.75 C 3.835938 -2.632812 3.769531 -2.535156 3.6875 -2.453125 C 3.601562 -2.378906 3.523438 -2.328125 3.453125 -2.296875 C 3.609375 -2.222656 3.75 -2.097656 3.875 -1.921875 C 4 -1.742188 4.0625 -1.539062 4.0625 -1.3125 C 4.0625 -1.039062 4.003906 -0.804688 3.890625 -0.609375 C 3.773438 -0.421875 3.601562 -0.269531 3.375 -0.15625 C 3.144531 -0.0507812 2.863281 0 2.53125 0 Z M 1.453125 -0.734375 L 2.40625 -0.734375 C 2.613281 -0.734375 2.769531 -0.789062 2.875 -0.90625 C 2.976562 -1.019531 3.03125 -1.15625 3.03125 -1.3125 C 3.03125 -1.476562 2.976562 -1.613281 2.875 -1.71875 C 2.769531 -1.832031 2.613281 -1.890625 2.40625 -1.890625 L 1.453125 -1.890625 Z M 1.453125 -2.609375 L 2.359375 -2.609375 C 2.554688 -2.609375 2.703125 -2.65625 2.796875 -2.75 C 2.890625 -2.851562 2.9375 -2.976562 2.9375 -3.125 C 2.9375 -3.28125 2.890625 -3.40625 2.796875 -3.5 C 2.703125 -3.59375 2.554688 -3.640625 2.359375 -3.640625 L 1.453125 -3.640625 Z M 1.453125 -2.609375 "/></g></g></g><g fill="#ffffff" fill-opacity="1"><g transform="translate(30.659004, 20.603266)"><g><path d="M 2.203125 0.0625 C 1.816406 0.0625 1.488281 0 1.21875 -0.125 C 0.945312 -0.25 0.734375 -0.4375 0.578125 -0.6875 C 0.421875 -0.9375 0.335938 -1.253906 0.328125 -1.640625 C 0.316406 -1.816406 0.3125 -1.992188 0.3125 -2.171875 C 0.3125 -2.347656 0.316406 -2.53125 0.328125 -2.71875 C 0.335938 -3.09375 0.421875 -3.40625 0.578125 -3.65625 C 0.734375 -3.914062 0.945312 -4.109375 1.21875 -4.234375 C 1.5 -4.367188 1.828125 -4.4375 2.203125 -4.4375 C 2.566406 -4.4375 2.882812 -4.367188 3.15625 -4.234375 C 3.4375 -4.109375 3.65625 -3.914062 3.8125 -3.65625 C 3.976562 -3.40625 4.066406 -3.09375 4.078125 -2.71875 C 4.085938 -2.53125 4.09375 -2.347656 4.09375 -2.171875 C 4.09375 -1.992188 4.085938 -1.816406 4.078125 -1.640625 C 4.066406 -1.253906 3.984375 -0.9375 3.828125 -0.6875 C 3.671875 -0.4375 3.453125 -0.25 3.171875 -0.125 C 2.898438 0 2.578125 0.0625 2.203125 0.0625 Z M 2.203125 -0.75 C 2.441406 -0.75 2.640625 -0.820312 2.796875 -0.96875 C 2.953125 -1.113281 3.035156 -1.347656 3.046875 -1.671875 C 3.054688 -1.859375 3.0625 -2.03125 3.0625 -2.1875 C 3.0625 -2.351562 3.054688 -2.523438 3.046875 -2.703125 C 3.035156 -2.921875 2.992188 -3.097656 2.921875 -3.234375 C 2.847656 -3.367188 2.75 -3.46875 2.625 -3.53125 C 2.5 -3.59375 2.359375 -3.625 2.203125 -3.625 C 2.046875 -3.625 1.90625 -3.59375 1.78125 -3.53125 C 1.65625 -3.46875 1.550781 -3.367188 1.46875 -3.234375 C 1.394531 -3.097656 1.351562 -2.921875 1.34375 -2.703125 C 1.34375 -2.523438 1.34375 -2.351562 1.34375 -2.1875 C 1.34375 -2.03125 1.34375 -1.859375 1.34375 -1.671875 C 1.363281 -1.347656 1.445312 -1.113281 1.59375 -0.96875 C 1.75 -0.820312 1.953125 -0.75 2.203125 -0.75 Z M 2.203125 -0.75 "/></g></g></g><g fill="#ffffff" fill-opacity="1"><g transform="translate(35.047958, 20.603266)"><g><path d="M 2.203125 0.0625 C 1.816406 0.0625 1.488281 0 1.21875 -0.125 C 0.945312 -0.25 0.734375 -0.4375 0.578125 -0.6875 C 0.421875 -0.9375 0.335938 -1.253906 0.328125 -1.640625 C 0.316406 -1.816406 0.3125 -1.992188 0.3125 -2.171875 C 0.3125 -2.347656 0.316406 -2.53125 0.328125 -2.71875 C 0.335938 -3.09375 0.421875 -3.40625 0.578125 -3.65625 C 0.734375 -3.914062 0.945312 -4.109375 1.21875 -4.234375 C 1.5 -4.367188 1.828125 -4.4375 2.203125 -4.4375 C 2.566406 -4.4375 2.882812 -4.367188 3.15625 -4.234375 C 3.4375 -4.109375 3.65625 -3.914062 3.8125 -3.65625 C 3.976562 -3.40625 4.066406 -3.09375 4.078125 -2.71875 C 4.085938 -2.53125 4.09375 -2.347656 4.09375 -2.171875 C 4.09375 -1.992188 4.085938 -1.816406 4.078125 -1.640625 C 4.066406 -1.253906 3.984375 -0.9375 3.828125 -0.6875 C 3.671875 -0.4375 3.453125 -0.25 3.171875 -0.125 C 2.898438 0 2.578125 0.0625 2.203125 0.0625 Z M 2.203125 -0.75 C 2.441406 -0.75 2.640625 -0.820312 2.796875 -0.96875 C 2.953125 -1.113281 3.035156 -1.347656 3.046875 -1.671875 C 3.054688 -1.859375 3.0625 -2.03125 3.0625 -2.1875 C 3.0625 -2.351562 3.054688 -2.523438 3.046875 -2.703125 C 3.035156 -2.921875 2.992188 -3.097656 2.921875 -3.234375 C 2.847656 -3.367188 2.75 -3.46875 2.625 -3.53125 C 2.5 -3.59375 2.359375 -3.625 2.203125 -3.625 C 2.046875 -3.625 1.90625 -3.59375 1.78125 -3.53125 C 1.65625 -3.46875 1.550781 -3.367188 1.46875 -3.234375 C 1.394531 -3.097656 1.351562 -2.921875 1.34375 -2.703125 C 1.34375 -2.523438 1.34375 -2.351562 1.34375 -2.1875 C 1.34375 -2.03125 1.34375 -1.859375 1.34375 -1.671875 C 1.363281 -1.347656 1.445312 -1.113281 1.59375 -0.96875 C 1.75 -0.820312 1.953125 -0.75 2.203125 -0.75 Z M 2.203125 -0.75 "/></g></g></g><g fill="#ffffff" fill-opacity="1"><g transform="translate(39.436913, 20.603266)"><g><path d="M 0.609375 0 C 0.566406 0 0.53125 -0.015625 0.5 -0.046875 C 0.476562 -0.078125 0.46875 -0.113281 0.46875 -0.15625 L 0.46875 -4.21875 C 0.46875 -4.257812 0.476562 -4.296875 0.5 -4.328125 C 0.53125 -4.359375 0.566406 -4.375 0.609375 -4.375 L 1.28125 -4.375 C 1.332031 -4.375 1.367188 -4.359375 1.390625 -4.328125 C 1.421875 -4.296875 1.4375 -4.257812 1.4375 -4.21875 L 1.4375 -2.796875 L 2.71875 -4.25 C 2.738281 -4.28125 2.769531 -4.304688 2.8125 -4.328125 C 2.851562 -4.359375 2.90625 -4.375 2.96875 -4.375 L 3.734375 -4.375 C 3.765625 -4.375 3.789062 -4.359375 3.8125 -4.328125 C 3.84375 -4.304688 3.859375 -4.28125 3.859375 -4.25 C 3.859375 -4.21875 3.851562 -4.191406 3.84375 -4.171875 L 2.234375 -2.28125 L 3.953125 -0.203125 C 3.972656 -0.191406 3.984375 -0.164062 3.984375 -0.125 C 3.984375 -0.09375 3.96875 -0.0625 3.9375 -0.03125 C 3.914062 -0.0078125 3.882812 0 3.84375 0 L 3.0625 0 C 2.988281 0 2.929688 -0.015625 2.890625 -0.046875 C 2.859375 -0.078125 2.832031 -0.101562 2.8125 -0.125 L 1.4375 -1.71875 L 1.4375 -0.15625 C 1.4375 -0.113281 1.421875 -0.078125 1.390625 -0.046875 C 1.367188 -0.015625 1.332031 0 1.28125 0 Z M 0.609375 0 "/></g></g></g><g fill="#ffffff" fill-opacity="1"><g transform="translate(43.476248, 20.603266)"><g><path d="M 0.625 0 C 0.570312 0 0.53125 -0.015625 0.5 -0.046875 C 0.476562 -0.078125 0.46875 -0.113281 0.46875 -0.15625 L 0.46875 -4.21875 C 0.46875 -4.257812 0.476562 -4.296875 0.5 -4.328125 C 0.53125 -4.359375 0.570312 -4.375 0.625 -4.375 L 1.203125 -4.375 C 1.265625 -4.375 1.3125 -4.359375 1.34375 -4.328125 C 1.375 -4.296875 1.394531 -4.269531 1.40625 -4.25 L 2.5625 -2.140625 L 3.71875 -4.25 C 3.726562 -4.269531 3.75 -4.296875 3.78125 -4.328125 C 3.8125 -4.359375 3.859375 -4.375 3.921875 -4.375 L 4.5 -4.375 C 4.539062 -4.375 4.578125 -4.359375 4.609375 -4.328125 C 4.640625 -4.296875 4.65625 -4.257812 4.65625 -4.21875 L 4.65625 -0.15625 C 4.65625 -0.113281 4.640625 -0.078125 4.609375 -0.046875 C 4.578125 -0.015625 4.539062 0 4.5 0 L 3.859375 0 C 3.816406 0 3.78125 -0.015625 3.75 -0.046875 C 3.726562 -0.078125 3.71875 -0.113281 3.71875 -0.15625 L 3.71875 -2.671875 L 2.921875 -1.1875 C 2.898438 -1.15625 2.875 -1.125 2.84375 -1.09375 C 2.8125 -1.0625 2.765625 -1.046875 2.703125 -1.046875 L 2.40625 -1.046875 C 2.351562 -1.046875 2.3125 -1.0625 2.28125 -1.09375 C 2.25 -1.125 2.222656 -1.15625 2.203125 -1.1875 L 1.40625 -2.671875 L 1.40625 -0.15625 C 1.40625 -0.113281 1.390625 -0.078125 1.359375 -0.046875 C 1.335938 -0.015625 1.300781 0 1.25 0 Z M 0.625 0 "/></g></g></g><g fill="#ffffff" fill-opacity="1"><g transform="translate(48.58941, 20.603266)"><g><path d="M 0.203125 0 C 0.171875 0 0.140625 -0.0078125 0.109375 -0.03125 C 0.0859375 -0.0625 0.078125 -0.09375 0.078125 -0.125 C 0.078125 -0.144531 0.078125 -0.164062 0.078125 -0.1875 L 1.5625 -4.203125 C 1.582031 -4.253906 1.609375 -4.296875 1.640625 -4.328125 C 1.679688 -4.359375 1.734375 -4.375 1.796875 -4.375 L 2.59375 -4.375 C 2.664062 -4.375 2.71875 -4.359375 2.75 -4.328125 C 2.789062 -4.296875 2.820312 -4.253906 2.84375 -4.203125 L 4.3125 -0.1875 C 4.320312 -0.164062 4.328125 -0.144531 4.328125 -0.125 C 4.328125 -0.09375 4.3125 -0.0625 4.28125 -0.03125 C 4.257812 -0.0078125 4.226562 0 4.1875 0 L 3.53125 0 C 3.476562 0 3.4375 -0.015625 3.40625 -0.046875 C 3.375 -0.078125 3.351562 -0.101562 3.34375 -0.125 L 3.078125 -0.828125 L 1.3125 -0.828125 L 1.0625 -0.125 C 1.039062 -0.101562 1.015625 -0.078125 0.984375 -0.046875 C 0.960938 -0.015625 0.921875 0 0.859375 0 Z M 1.5625 -1.625 L 2.84375 -1.625 L 2.203125 -3.421875 Z M 1.5625 -1.625 "/></g></g></g><g fill="#ffffff" fill-opacity="1"><g transform="translate(52.984607, 20.603266)"><g><path d="M 0.609375 0 C 0.566406 0 0.53125 -0.015625 0.5 -0.046875 C 0.476562 -0.078125 0.46875 -0.113281 0.46875 -0.15625 L 0.46875 -4.21875 C 0.46875 -4.257812 0.476562 -4.296875 0.5 -4.328125 C 0.53125 -4.359375 0.566406 -4.375 0.609375 -4.375 L 2.28125 -4.375 C 2.800781 -4.375 3.207031 -4.253906 3.5 -4.015625 C 3.800781 -3.773438 3.953125 -3.429688 3.953125 -2.984375 C 3.953125 -2.679688 3.878906 -2.425781 3.734375 -2.21875 C 3.585938 -2.007812 3.394531 -1.859375 3.15625 -1.765625 L 4.03125 -0.203125 C 4.050781 -0.171875 4.0625 -0.144531 4.0625 -0.125 C 4.0625 -0.09375 4.046875 -0.0625 4.015625 -0.03125 C 3.984375 -0.0078125 3.953125 0 3.921875 0 L 3.21875 0 C 3.144531 0 3.085938 -0.0195312 3.046875 -0.0625 C 3.015625 -0.101562 2.988281 -0.140625 2.96875 -0.171875 L 2.21875 -1.59375 L 1.453125 -1.59375 L 1.453125 -0.15625 C 1.453125 -0.113281 1.4375 -0.078125 1.40625 -0.046875 C 1.382812 -0.015625 1.347656 0 1.296875 0 Z M 1.453125 -2.390625 L 2.265625 -2.390625 C 2.484375 -2.390625 2.648438 -2.441406 2.765625 -2.546875 C 2.878906 -2.648438 2.9375 -2.796875 2.9375 -2.984375 C 2.9375 -3.171875 2.878906 -3.316406 2.765625 -3.421875 C 2.660156 -3.535156 2.492188 -3.59375 2.265625 -3.59375 L 1.453125 -3.59375 Z M 1.453125 -2.390625 "/></g></g></g><g fill="#ffffff" fill-opacity="1"><g transform="translate(57.242453, 20.603266)"><g><path d="M 0.609375 0 C 0.566406 0 0.53125 -0.015625 0.5 -0.046875 C 0.476562 -0.078125 0.46875 -0.113281 0.46875 -0.15625 L 0.46875 -4.21875 C 0.46875 -4.257812 0.476562 -4.296875 0.5 -4.328125 C 0.53125 -4.359375 0.566406 -4.375 0.609375 -4.375 L 1.28125 -4.375 C 1.332031 -4.375 1.367188 -4.359375 1.390625 -4.328125 C 1.421875 -4.296875 1.4375 -4.257812 1.4375 -4.21875 L 1.4375 -2.796875 L 2.71875 -4.25 C 2.738281 -4.28125 2.769531 -4.304688 2.8125 -4.328125 C 2.851562 -4.359375 2.90625 -4.375 2.96875 -4.375 L 3.734375 -4.375 C 3.765625 -4.375 3.789062 -4.359375 3.8125 -4.328125 C 3.84375 -4.304688 3.859375 -4.28125 3.859375 -4.25 C 3.859375 -4.21875 3.851562 -4.191406 3.84375 -4.171875 L 2.234375 -2.28125 L 3.953125 -0.203125 C 3.972656 -0.191406 3.984375 -0.164062 3.984375 -0.125 C 3.984375 -0.09375 3.96875 -0.0625 3.9375 -0.03125 C 3.914062 -0.0078125 3.882812 0 3.84375 0 L 3.0625 0 C 2.988281 0 2.929688 -0.015625 2.890625 -0.046875 C 2.859375 -0.078125 2.832031 -0.101562 2.8125 -0.125 L 1.4375 -1.71875 L 1.4375 -0.15625 C 1.4375 -0.113281 1.421875 -0.078125 1.390625 -0.046875 C 1.367188 -0.015625 1.332031 0 1.28125 0 Z M 0.609375 0 "/></g></g></g></svg>